<?xml version="1.0" encoding="UTF-8" standalone="no" ?>
<!DOCTYPE svg PUBLIC "-//W3C//DTD SVG 1.1//EN" "http://www.w3.org/Graphics/SVG/1.1/DTD/svg11.dtd">
<svg xmlns="http://www.w3.org/2000/svg" xmlns:xlink="http://www.w3.org/1999/xlink" version="1.1" width="500" height="500" viewBox="0 0 500 500" xml:space="preserve">
<desc>Created with Fabric.js 4.6.0</desc>
<defs>
</defs>
<g transform="matrix(0.44 0 0 0.44 261.63 182.04)" id="iyM0fRTBkQcVVnql2zS4x"  >
<g style="" vector-effect="non-scaling-stroke"   >
		<g transform="matrix(1 0 0 1 -12.04 -221.37)" id="6L2cArAmsy-coHYKd2sxV"  >
<path style="stroke: none; stroke-width: 1; stroke-dasharray: none; stroke-linecap: butt; stroke-dashoffset: 0; stroke-linejoin: miter; stroke-miterlimit: 4; fill: rgb(242,242,242); fill-rule: nonzero; opacity: 1;" vector-effect="non-scaling-stroke"  transform=" translate(-287.96, -78.63)" d="M 321.695 154.32 L 308.93899999999996 154.32 L 308.89899999999994 153.831 L 301.21599999999995 60.28099999999999 C 302.72399999999993 57.93699999999999 309.364 46.94699999999999 309.79799999999994 34.56499999999999 C 310.31399999999996 20.20699999999999 292.07599999999996 14.202999999999992 291.29599999999994 13.96299999999999 L 291.05999999999995 13.88299999999999 L 290.8109999999999 13.89199999999999 C 290.6089999999999 13.89599999999999 269.57199999999995 14.67999999999999 268.06299999999993 38.82799999999999 C 268.06299999999993 53.11499999999999 275.44499999999994 58.72999999999999 278.09599999999995 60.28599999999999 L 275.23199999999997 153.832 L 275.217 154.321 L 265.542 154.321 L 265.565 153.832 L 269.615 68.279 L 268.974 67.807 C 268.755 67.643 246.57999999999998 50.987 257.006 26.961000000000006 C 266.943 4.039 289.8 2.985 292.372 2.943 C 295.18 3.866 325.09000000000003 14.139999999999999 321.254 33.756 C 317.072 55.146 310.07800000000003 65.17099999999999 310.00600000000003 65.273 L 309.66400000000004 65.74499999999999 L 321.629 153.832 L 321.695 154.32 z" stroke-linecap="round" />
</g>
		<g transform="matrix(1 0 0 1 -10.63 -166.03)" id="rLaWsx0B5adgnrHvRyAkI"  >
<path style="stroke: none; stroke-width: 1; stroke-dasharray: none; stroke-linecap: butt; stroke-dashoffset: 0; stroke-linejoin: miter; stroke-miterlimit: 4; fill: rgb(255,231,59); fill-rule: nonzero; opacity: 1;" vector-effect="non-scaling-stroke"  transform=" translate(-289.37, -133.96)" d="M 355.39 118.235 C 355.373 118.863 355.339 119.527 355.293 120.214 C 355.25100000000003 120.849 355.197 121.507 355.128 122.195 C 355.058 122.88399999999999 354.976 123.598 354.877 124.34299999999999 C 354.793 124.975 354.694 125.633 354.588 126.30699999999999 C 354.523 126.71999999999998 354.458 127.13099999999999 354.384 127.55899999999998 C 354.343 127.78999999999998 354.296 128.03599999999997 354.25300000000004 128.271 C 354.18000000000006 128.67499999999998 354.107 129.077 354.02600000000007 129.49499999999998 C 353.9030000000001 130.12599999999998 353.7710000000001 130.77199999999996 353.63000000000005 131.43499999999997 C 352.34400000000005 137.45099999999996 350.26000000000005 144.81499999999997 347.06300000000005 153.82899999999998 L 324.59800000000007 153.82899999999998 L 321.21200000000005 128.879 L 321.1580000000001 128.48499999999999 L 320.9410000000001 126.88599999999998 L 320.8920000000001 126.52499999999998 L 320.6790000000001 124.96299999999998 L 320.6710000000001 124.89999999999998 L 320.6250000000001 124.56399999999998 L 320.41500000000013 123.01699999999998 L 320.15000000000015 121.06599999999999 L 317.70600000000013 103.05299999999998 C 335.0630000000001 103.59199999999998 348.1200000000001 104.19599999999998 348.35400000000016 104.20999999999998 L 348.60400000000016 104.20999999999998 L 348.76000000000016 104.19699999999997 C 349.35000000000014 104.19699999999997 351.40300000000013 104.37799999999997 353.04700000000014 106.70499999999997 C 354.297 108.487 355.557 111.872 355.39 118.235 z M 262.62 153.831 L 263.76800000000003 129.541 L 263.8 128.859 L 263.861 127.56700000000001 L 263.893 126.897 L 263.955 125.587 L 263.986 124.933 L 264.012 124.372 L 264.105 122.406 L 264.19800000000004 120.44900000000001 L 265.05800000000005 102.24800000000002 C 248.82000000000005 102.37900000000002 237.98900000000006 103.02800000000002 232.85500000000005 104.17000000000002 C 228.14200000000005 105.22000000000001 225.15300000000005 107.24800000000002 223.96000000000004 110.21100000000001 C 223.10600000000002 112.34500000000001 223.22500000000002 114.85600000000001 223.77300000000002 117.26100000000001 C 223.92800000000003 117.94300000000001 224.11500000000004 118.61500000000001 224.32800000000003 119.269 C 224.55800000000002 119.97500000000001 224.81300000000005 120.65700000000001 225.08200000000002 121.30300000000001 C 225.73700000000002 122.87800000000001 226.45900000000003 124.239 227.03000000000003 125.17300000000002 C 227.14900000000003 125.36700000000002 227.26100000000002 125.54400000000001 227.36500000000004 125.70000000000002 L 227.64800000000002 126.34900000000002 L 227.82800000000003 127.13100000000001 L 228.13600000000002 128.467 L 228.28000000000003 129.08900000000003 L 228.58300000000003 130.40400000000002 L 229.02800000000002 132.33400000000003 L 233.984 153.83200000000002 L 262.62 153.83200000000002 z M 303.867 128.599 L 303.77700000000004 127.50699999999999 L 303.706 126.63799999999999 L 303.68100000000004 126.33099999999999 L 303.61500000000007 125.52099999999999 L 303.54600000000005 124.67599999999999 L 303.52200000000005 124.37699999999998 L 303.45400000000006 123.54399999999998 L 303.36100000000005 122.41899999999998 L 301.73600000000005 102.61899999999999 C 294.51900000000006 102.45099999999998 287.04400000000004 102.31899999999999 279.76200000000006 102.25799999999998 L 279.16700000000003 121.62899999999998 L 279.107 123.58899999999997 L 279.083 124.37099999999997 L 279.069 124.83599999999997 L 279.047 125.55799999999996 L 279.023 126.34899999999996 L 279.009 126.79999999999995 L 278.963 128.32099999999994 L 278.949 128.76199999999994 L 278.17900000000003 153.83199999999994 L 305.94000000000005 153.83199999999994 L 303.867 128.599 z M 234.14 157.76 L 233.015 165.68099999999998 L 348.537 165.68099999999998 L 346.85499999999996 157.76 L 234.14 157.76 z" stroke-linecap="round" />
</g>
		<g transform="matrix(1 0 0 1 -0.42 53.07)" id="nEnwwpltGOY3dzwc9bwfg"  >
<path style="stroke: none; stroke-width: 1; stroke-dasharray: none; stroke-linecap: butt; stroke-dashoffset: 0; stroke-linejoin: miter; stroke-miterlimit: 4; fill: rgb(255,255,243); fill-rule: nonzero; opacity: 1;" vector-effect="non-scaling-stroke"  transform=" translate(-299.58, -353.06)" d="M 57.441 501.802 C 58.016000000000005 528.336 58.555 549.812 58.922000000000004 563.708 C 56.941 563.211 55.231 562.709 53.81400000000001 562.201 C 54.133 556.497 55.409 534.291 57.441 501.802 z M 220.754 120.962 L 89.353 110.603 C 88.755 115.64099999999999 88.161 120.804 87.56899999999999 126.076 L 222.57 125.201 C 221.981 124.051 221.323 122.599 220.754 120.962 z M 312.168 580.873 C 411.59000000000003 583.8580000000001 504.706 584.9480000000001 520.02 585.1070000000001 C 519.581 580.1400000000001 519.265 574.363 519.057 567.8990000000001 C 483.511 570.438 399.113 576.269 312.168 580.873 z M 528.588 337.676 C 535.073 244.86399999999998 542.596 160.357 543.8499999999999 146.432 L 524.3889999999999 144.898 C 524.3299999999999 174.753 524.3619999999999 235.103 525.2649999999999 301.676 C 526.336 313.597 527.445 325.642 528.588 337.676 z M 358.817 574.348 C 428.062 570.3309999999999 531.957 563.0409999999999 534.171 562.8789999999999 C 533.5100000000001 559.1649999999998 532.8820000000001 554.9769999999999 532.282 550.3779999999999 C 529.339 550.806 422.767 566.01 358.817 574.348 z M 219.716 129.144 L 60.32300000000001 130.17600000000002 C 60.193000000000005 134.043 60.071000000000005 137.984 59.95600000000001 141.989 L 219.716 129.144 z M 69.59 493.757 C 69.08200000000001 490.326 68.93900000000001 487.782 68.903 486.433 C 66.977 465.837 64.914 443.282 62.819 419.59 C 62.448 415.40099999999995 62.077000000000005 411.17699999999996 61.705000000000005 406.921 C 61.345000000000006 402.795 60.983000000000004 398.643 60.623000000000005 394.46299999999997 C 60.162000000000006 389.126 59.702000000000005 383.748 59.243 378.33899999999994 C 59.369 388.52099999999996 59.507000000000005 398.55499999999995 59.653 408.3829999999999 C 59.769999999999996 416.26899999999995 59.893 424.01899999999995 60.019999999999996 431.60799999999995 C 60.153999999999996 439.66299999999995 60.291999999999994 447.5319999999999 60.43299999999999 455.179 C 61.32899999999999 503.86299999999994 63.23199999999999 577.7339999999999 63.28699999999999 579.641 C 66.714 580.529 71.67699999999999 581.257 78.15299999999999 581.827 C 77.835 578.674 72.397 523.608 69.59 493.757 z M 520.792 250.07 C 520.428 204.798 520.518 129.636 520.529 127.195 L 511.234 127.255 C 511.506 131.031 517.241 207.692 520.792 250.07 z M 529.35 385.089 C 528.936 381.101 528.525 377.093 528.118 373.067 C 527.729 369.224 527.344 365.366 526.961 361.499 C 526.684 358.70000000000005 526.408 355.89500000000004 526.134 353.088 C 525.293 344.463 524.469 335.805 523.6610000000001 327.161 C 522.873 318.715 522.1010000000001 310.284 521.35 301.915 C 515.7040000000001 239.07300000000004 506.26000000000005 112.47800000000001 506.09400000000005 110.06000000000003 L 359.105 121.87700000000004 C 359.034 122.67300000000004 358.951 123.48200000000004 358.845 124.31900000000005 C 358.764 124.96300000000005 358.67600000000004 125.61400000000005 358.57500000000005 126.28300000000004 C 358.49600000000004 126.80300000000004 358.40600000000006 127.33600000000004 358.314 127.87100000000004 C 358.293 127.99500000000003 358.269 128.12300000000005 358.24800000000005 128.24800000000005 C 358.15700000000004 128.76500000000004 358.07000000000005 129.27800000000005 357.96900000000005 129.80900000000005 C 357.84800000000007 130.44300000000004 357.71200000000005 131.09500000000006 357.57400000000007 131.74900000000005 C 356.1140000000001 138.71000000000006 353.7560000000001 146.76300000000006 350.4800000000001 155.91700000000006 L 353.3760000000001 169.60700000000006 L 228.4860000000001 169.60700000000006 L 230.4300000000001 155.88200000000006 L 225.0720000000001 132.65300000000008 L 47.36 146.938 C 48.805 183.01399999999998 63.119 377.615 63.471999999999994 381.754 C 63.833999999999996 386.00800000000004 64.198 390.23900000000003 64.56099999999999 394.447 C 67.332 426.53700000000003 70.11 457.156 72.65499999999999 484.41200000000003 C 93.16699999999999 516.361 123.08399999999999 518.979 139.111 517.691 C 144.84 517.2320000000001 148.462 516.265 148.504 516.2570000000001 L 151.16 515.5480000000001 L 151.03799999999998 518.2920000000001 C 150.035 541.1010000000001 166.481 562.8100000000002 178.45399999999998 575.4830000000002 C 179.13899999999998 576.2090000000002 179.808 576.9020000000002 180.45999999999998 577.5670000000001 C 181.17199999999997 578.2940000000001 181.86399999999998 578.9850000000001 182.52599999999998 579.6350000000001 C 183.55499999999998 580.6450000000001 184.516 581.5610000000001 185.39 582.3750000000001 C 186.15599999999998 583.0880000000001 186.85199999999998 583.7200000000001 187.47099999999998 584.2720000000002 C 188.39199999999997 585.0940000000002 189.13699999999997 585.7350000000001 189.65699999999998 586.1740000000002 C 190.17199999999997 586.6090000000002 190.47199999999998 586.8500000000003 190.50599999999997 586.8760000000002 L 194.18699999999998 589.8100000000002 C 211.373 588.1070000000002 229.72199999999998 586.1250000000002 248.69699999999997 583.9580000000002 C 251.56999999999996 583.6300000000002 254.45799999999997 583.2980000000002 257.35799999999995 582.9620000000002 C 261.55999999999995 582.4750000000003 265.78899999999993 581.9790000000003 270.03799999999995 581.4760000000002 C 272.12499999999994 581.2300000000002 274.21599999999995 580.9810000000002 276.31199999999995 580.7310000000002 C 278.50399999999996 580.4690000000003 280.703 580.2060000000002 282.90399999999994 579.9400000000002 C 289.88599999999997 579.0990000000002 296.9069999999999 578.2410000000002 303.9429999999999 577.3710000000002 C 387.19899999999996 567.0710000000003 548.9649999999999 543.9590000000002 551.8029999999999 543.5390000000002 C 544.164 513.611 536.331 452.399 529.35 385.089 z M 165.048 584.848 C 162.987 584.2539999999999 160.965 583.645 158.991 583.015 C 153.42600000000002 581.2379999999999 148.205 579.3199999999999 143.30700000000002 577.282 C 141.471 576.517 139.68200000000002 575.7370000000001 137.935 574.94 C 136.262 574.177 134.618 573.4050000000001 133.025 572.615 C 99.02600000000001 555.7570000000001 83.04 532.945 75.53200000000001 514.868 C 77.54100000000001 535.9050000000001 83.26100000000001 593.326 83.43 594.97 C 93.93900000000001 596.876 118.352 596.298 156.058 593.2710000000001 C 166.203 592.456 177.076 591.479 188.505 590.3710000000001 C 182.62099999999998 589.2700000000001 177.033 588.0280000000001 171.714 586.666 C 169.439 586.082 167.223 585.474 165.048 584.848 z M 144.58 573.431 C 146.51100000000002 574.24 148.49900000000002 575.027 150.537 575.796 C 152.708 576.6160000000001 154.941 577.413 157.23600000000002 578.186 C 161.288 579.5490000000001 165.52300000000002 580.84 169.97400000000002 582.039 C 170.026 582.053 170.07600000000002 582.067 170.12800000000001 582.08 C 170.15200000000002 582.087 170.17700000000002 582.0930000000001 170.20100000000002 582.099 C 170.98800000000003 582.3100000000001 171.79000000000002 582.514 172.59000000000003 582.72 C 174.98400000000004 583.335 177.43800000000005 583.924 179.94800000000004 584.488 C 180.70500000000004 584.658 181.45300000000003 584.831 182.22100000000003 584.9960000000001 C 182.13400000000004 584.916 182.04000000000002 584.8260000000001 181.95200000000003 584.7440000000001 C 181.84700000000004 584.6450000000001 181.73700000000002 584.5430000000001 181.62900000000002 584.4410000000001 C 180.997 583.8490000000002 180.33300000000003 583.2150000000001 179.63700000000003 582.5390000000001 C 178.61800000000002 581.5480000000001 177.53900000000002 580.4700000000001 176.41300000000004 579.3080000000001 C 175.77100000000004 578.6450000000001 175.11500000000004 577.9540000000001 174.44700000000003 577.2400000000001 C 173.82100000000003 576.5690000000001 173.18600000000004 575.8740000000001 172.54400000000004 575.1590000000001 C 161.82500000000005 563.2320000000001 149.17000000000004 545.2820000000002 147.22500000000005 525.5070000000001 C 147.06900000000005 523.922 146.97200000000007 522.3270000000001 146.96000000000006 520.7220000000001 C 146.92300000000006 520.729 146.88000000000005 520.7370000000001 146.84200000000007 520.743 C 145.09500000000006 521.067 142.57100000000008 521.452 139.43500000000006 521.7080000000001 C 123.58000000000006 522.989 94.84100000000007 520.6490000000001 73.47600000000006 492.6110000000001 C 75.76 508.938 87.234 549.428 144.58 573.431 z" stroke-linecap="round" />
</g>
		<g transform="matrix(1 0 0 1 0 0)" id="VxixjzwtSC48BH9VHhk8D"  >
<path style="stroke: none; stroke-width: 1; stroke-dasharray: none; stroke-linecap: butt; stroke-dashoffset: 0; stroke-linejoin: miter; stroke-miterlimit: 4; fill: rgb(96,96,96); fill-rule: nonzero; opacity: 1;" vector-effect="non-scaling-stroke"  transform=" translate(-300, -300)" d="M 556.713 546.783 L 556.1429999999999 544.65 C 547.507 512.492 538.5759999999999 439.07 530.8889999999999 361.42199999999997 C 538.1979999999999 252.03299999999996 547.7559999999999 146.74899999999997 547.9279999999999 144.81299999999996 L 548.1169999999998 142.83599999999996 L 524.3969999999998 140.96499999999995 C 524.4199999999998 131.29299999999995 524.4519999999998 125.67099999999995 524.4529999999999 125.23899999999995 L 524.4709999999999 123.24499999999995 L 510.9539999999999 123.33199999999995 C 510.2719999999999 113.78399999999995 509.8919999999999 108.23299999999995 509.8629999999999 107.80299999999995 L 509.71699999999987 105.82599999999995 L 359.3309999999999 117.91799999999995 C 359.4319999999999 112.03699999999995 358.4149999999999 107.52999999999994 356.2519999999999 104.45599999999995 C 353.5289999999999 100.58199999999995 349.7989999999999 100.23999999999995 348.5369999999999 100.28699999999995 C 348.2999999999999 100.27799999999995 334.8909999999999 99.66099999999994 317.17299999999994 99.11799999999995 L 312.74199999999996 66.47299999999996 C 314.234 64.17599999999996 320.30499999999995 53.96499999999996 324.14 34.31099999999996 C 328.656 11.250999999999959 294.48699999999997 0.5099999999999554 293.029 0.058999999999954866 L 292.494 0 C 291.39300000000003 0 265.36600000000004 0.295 254.3 25.783 C 244.001 49.517 262.841 66.578 266.59700000000004 69.673 L 265.24300000000005 98.331 C 248.59900000000005 98.46000000000001 237.41400000000004 99.129 231.99900000000005 100.33 C 225.96200000000005 101.679 222.02000000000004 104.512 220.32100000000005 108.74799999999999 C 219.25800000000007 111.39899999999999 219.23900000000006 114.25699999999999 219.70200000000006 116.94 L 85.925 106.392 C 85.925 106.392 84.309 120.003 83.625 126.102 L 56.537 126.277 C 56.537 126.277 56.158 137.491 56.021 142.306 L 43.287 143.33 C 43.287 143.33 49.743 260.444 54.782 324.028 C 55.113 370.216 55.778999999999996 415.59000000000003 56.504999999999995 455.059 C 52.354 518.128 49.858999999999995 562.291 49.797 563.418 L 49.724999999999994 564.814 L 51.010999999999996 565.3449999999999 C 53.031 566.1809999999999 55.705999999999996 566.9939999999999 59.032 567.786 C 59.254999999999995 576.103 59.394 580.837 59.404999999999994 581.194 L 59.446999999999996 582.5939999999999 L 60.787 583.002 C 64.508 584.159 70.448 585.0809999999999 78.551 585.7679999999999 C 79.243 592.6039999999999 79.644 596.4759999999999 79.677 596.7969999999999 L 79.816 598.1879999999999 L 81.182 598.5039999999999 C 91.363 600.8649999999999 115.957 600.43 156.369 597.18 C 192.051 594.31 236.69 589.458 283.058 583.8729999999999 C 401.311 587.848 520.386 589.0419999999999 522.138 589.0569999999999 L 524.339 589.0649999999999 L 524.128 586.8889999999999 C 523.5830000000001 581.4909999999999 523.202 575.0109999999999 522.966 567.6179999999999 C 531.454 567.0089999999999 536.315 566.6469999999999 536.646 566.622 L 538.841 566.4699999999999 L 538.429 564.2939999999999 C 537.631 560.1159999999999 536.8779999999999 555.2559999999999 536.167 549.8119999999999 C 547.537 548.154 556.713 546.783 556.713 546.783 z M 534.172 562.879 C 531.957 563.041 428.06300000000005 570.331 358.818 574.3480000000001 C 422.767 566.0100000000001 529.3389999999999 550.806 532.284 550.378 C 532.883 554.977 533.511 559.165 534.172 562.879 z M 520.02 585.107 C 504.707 584.948 411.59 583.858 312.168 580.8729999999999 C 399.113 576.2689999999999 483.51099999999997 570.4369999999999 519.057 567.8989999999999 C 519.265 574.363 519.58 580.141 520.02 585.107 z M 303.94 577.373 C 296.904 578.243 289.883 579.1020000000001 282.901 579.942 C 280.7 580.208 278.502 580.471 276.309 580.7330000000001 C 274.21200000000005 580.9830000000001 272.12100000000004 581.2320000000001 270.035 581.4780000000001 C 265.786 581.9810000000001 261.557 582.4770000000001 257.355 582.964 C 254.455 583.3000000000001 251.567 583.6320000000001 248.69400000000002 583.96 C 229.71900000000002 586.1270000000001 211.37 588.1080000000001 194.18400000000003 589.812 L 190.50300000000001 586.878 C 190.46900000000002 586.8520000000001 190.17000000000002 586.61 189.65400000000002 586.176 C 189.13400000000001 585.7370000000001 188.38900000000004 585.096 187.46800000000002 584.274 C 186.84900000000002 583.721 186.15300000000002 583.089 185.38700000000003 582.377 C 184.51200000000003 581.563 183.55200000000002 580.6469999999999 182.52300000000002 579.637 C 181.86100000000002 578.987 181.169 578.295 180.45700000000002 577.569 C 179.80500000000004 576.904 179.13600000000002 576.211 178.45100000000002 575.485 C 166.478 562.811 150.032 541.102 151.03500000000003 518.294 L 151.15700000000004 515.55 L 148.50100000000003 516.2589999999999 C 148.45900000000003 516.2669999999999 144.83700000000005 517.2339999999999 139.10800000000003 517.6929999999999 C 123.08200000000004 518.9809999999999 93.16400000000003 516.3629999999998 72.65200000000003 484.4139999999999 C 70.10700000000003 457.1579999999999 67.32800000000003 426.5389999999999 64.55800000000004 394.44899999999984 C 64.19500000000004 390.2409999999998 63.83100000000004 386.0099999999998 63.46900000000004 381.75599999999986 C 63.116000000000035 377.61699999999985 48.802000000000035 183.01599999999985 47.35700000000004 146.93999999999986 L 225.07000000000005 132.65299999999985 L 230.42800000000005 155.88199999999983 L 228.48400000000007 169.60699999999983 L 353.3740000000001 169.60699999999983 L 350.47800000000007 155.91699999999983 C 353.75300000000004 146.76299999999983 356.1120000000001 138.70899999999983 357.57200000000006 131.74899999999982 C 357.71000000000004 131.09499999999983 357.8450000000001 130.4429999999998 357.96700000000004 129.80899999999983 C 358.069 129.27899999999983 358.15500000000003 128.76499999999982 358.24600000000004 128.24799999999982 C 358.26700000000005 128.12299999999982 358.29200000000003 127.99499999999982 358.312 127.87099999999982 C 358.404 127.33599999999983 358.494 126.80299999999983 358.57300000000004 126.28299999999983 C 358.67400000000004 125.61499999999982 358.761 124.96299999999984 358.843 124.31899999999983 C 358.94800000000004 123.48199999999983 359.031 122.67299999999983 359.103 121.87699999999984 L 506.092 110.05999999999983 C 506.258 112.47799999999984 515.702 239.07299999999984 521.348 301.91499999999985 C 522.0989999999999 310.2839999999999 522.87 318.71499999999986 523.659 327.16099999999983 C 524.467 335.80499999999984 525.2909999999999 344.46299999999985 526.132 353.08799999999985 C 526.406 355.89599999999984 526.6819999999999 358.6999999999999 526.959 361.49899999999985 C 527.342 365.3659999999999 527.728 369.22499999999985 528.116 373.06699999999984 C 528.523 377.09299999999985 528.934 381.10099999999983 529.348 385.0889999999998 C 536.329 452.39999999999986 544.1619999999999 513.6109999999999 551.799 543.5409999999998 C 548.963 543.961 387.196 567.073 303.94 577.373 z M 83.43 594.969 C 83.26100000000001 593.325 77.54100000000001 535.9050000000001 75.53200000000001 514.8670000000001 C 83.03900000000002 532.9440000000001 99.02600000000001 555.7560000000001 133.025 572.614 C 134.618 573.404 136.262 574.177 137.935 574.9390000000001 C 139.68200000000002 575.7360000000001 141.471 576.5160000000001 143.30700000000002 577.2810000000001 C 148.205 579.3190000000001 153.42600000000002 581.2370000000001 158.991 583.014 C 160.965 583.644 162.98700000000002 584.253 165.048 584.847 C 167.223 585.473 169.439 586.081 171.714 586.663 C 177.033 588.025 182.621 589.267 188.505 590.368 C 177.076 591.476 166.203 592.4530000000001 156.058 593.268 C 118.352 596.297 93.939 596.875 83.43 594.969 z M 63.287 579.641 C 63.232 577.7339999999999 61.329 503.86299999999994 60.433 455.179 C 60.292 447.532 60.153999999999996 439.662 60.02 431.60799999999995 C 59.894000000000005 424.01899999999995 59.77 416.26899999999995 59.653000000000006 408.3829999999999 C 59.507000000000005 398.55499999999995 59.36900000000001 388.5209999999999 59.24300000000001 378.33899999999994 C 59.70200000000001 383.74799999999993 60.162000000000006 389.1259999999999 60.62300000000001 394.46299999999997 C 60.98300000000001 398.643 61.34500000000001 402.79499999999996 61.70500000000001 406.921 C 62.07700000000001 411.177 62.448000000000015 415.4 62.81900000000001 419.59 C 64.91400000000002 443.28099999999995 66.977 465.837 68.903 486.433 C 68.93900000000001 487.783 69.081 490.327 69.59 493.757 C 72.397 523.609 77.83500000000001 578.674 78.153 581.826 C 71.677 581.257 66.714 580.528 63.287 579.641 z M 53.814 562.201 C 54.132 556.4970000000001 55.409 534.291 57.441 501.802 C 58.016000000000005 528.336 58.555 549.812 58.922000000000004 563.708 C 56.941 563.211 55.231 562.709 53.814 562.201 z M 172.544 575.156 C 173.186 575.871 173.821 576.5659999999999 174.447 577.237 C 175.114 577.952 175.77100000000002 578.6419999999999 176.413 579.305 C 177.538 580.467 178.61800000000002 581.545 179.637 582.536 C 180.333 583.213 180.996 583.847 181.629 584.438 C 181.737 584.54 181.846 584.6419999999999 181.952 584.741 C 182.04 584.823 182.134 584.913 182.221 584.9929999999999 C 181.453 584.828 180.705 584.655 179.948 584.4849999999999 C 177.437 583.9219999999999 174.984 583.3329999999999 172.59 582.7169999999999 C 171.79 582.5109999999999 170.988 582.3069999999999 170.201 582.0959999999999 C 170.177 582.0899999999999 170.153 582.0829999999999 170.128 582.0769999999999 C 170.077 582.0629999999999 170.02499999999998 582.0509999999999 169.974 582.0359999999998 C 165.523 580.8379999999999 161.28799999999998 579.5469999999998 157.236 578.1829999999999 C 154.94199999999998 577.4109999999998 152.708 576.6139999999999 150.53699999999998 575.7929999999999 C 148.49999999999997 575.0229999999999 146.51199999999997 574.2359999999999 144.57999999999998 573.4279999999999 C 87.23399999999998 549.4249999999998 75.75999999999999 508.9349999999999 73.47599999999998 492.6059999999999 C 94.84099999999998 520.6439999999999 123.57999999999998 522.9839999999999 139.435 521.7029999999999 C 142.571 521.4469999999999 145.096 521.0619999999999 146.842 520.7379999999998 C 146.88000000000002 520.7309999999999 146.923 520.7229999999998 146.96 520.7169999999999 C 146.972 522.3219999999999 147.068 523.9169999999999 147.225 525.5019999999998 C 149.17 545.279 161.825 563.229 172.544 575.156 z M 60.323 130.176 L 219.716 129.14399999999998 L 59.95600000000002 141.98899999999998 C 60.071 137.984 60.193 134.043 60.323 130.176 z M 223.959 110.211 C 225.15200000000002 107.248 228.141 105.22 232.854 104.17 C 237.988 103.028 248.81900000000002 102.379 265.057 102.248 L 262.619 153.83100000000002 L 233.98300000000003 153.83100000000002 L 227.82700000000003 127.13100000000001 L 227.64700000000002 126.34900000000002 L 227.36400000000003 125.70000000000002 C 227.26000000000002 125.54400000000001 227.14800000000002 125.36700000000002 227.02900000000002 125.17300000000002 C 226.45800000000003 124.23900000000002 225.73600000000002 122.87900000000002 225.08100000000002 121.30300000000001 C 224.812 120.65700000000001 224.55700000000002 119.97500000000001 224.32700000000003 119.269 C 224.11400000000003 118.61500000000001 223.92700000000002 117.94300000000001 223.77200000000002 117.26100000000001 C 223.225 114.855 223.105 112.345 223.959 110.211 z M 269.616 68.277 L 268.97499999999997 67.805 C 268.756 67.641 246.58099999999996 50.98500000000001 257.00699999999995 26.95900000000001 C 266.943 4.039 289.8 2.985 292.372 2.943 C 295.18 3.866 325.09000000000003 14.139999999999999 321.254 33.756 C 317.072 55.146 310.07800000000003 65.17099999999999 310.00600000000003 65.273 L 309.66400000000004 65.74499999999999 L 321.629 153.832 L 321.695 154.321 L 308.93899999999996 154.321 L 308.89899999999994 153.832 L 301.21599999999995 60.282 C 302.72399999999993 57.937999999999995 309.364 46.94799999999999 309.79799999999994 34.565999999999995 C 310.31399999999996 20.207999999999995 292.07599999999996 14.203999999999997 291.29599999999994 13.963999999999995 L 291.05999999999995 13.883999999999995 L 290.8109999999999 13.892999999999995 C 290.6089999999999 13.896999999999995 269.57199999999995 14.680999999999996 268.06299999999993 38.82899999999999 C 268.06299999999993 53.11599999999999 275.44499999999994 58.730999999999995 278.09599999999995 60.28699999999999 L 275.23199999999997 153.833 L 275.217 154.322 L 265.542 154.322 L 265.565 153.833 L 269.616 68.277 z M 348.355 104.212 L 348.605 104.212 L 348.761 104.199 C 349.351 104.199 351.404 104.38 353.048 106.707 C 354.296 108.487 355.556 111.872 355.389 118.235 C 355.372 118.863 355.338 119.527 355.29200000000003 120.214 C 355.25000000000006 120.849 355.196 121.507 355.127 122.195 C 355.057 122.88399999999999 354.975 123.598 354.87600000000003 124.34299999999999 C 354.79200000000003 124.975 354.69300000000004 125.633 354.58700000000005 126.30699999999999 C 354.52200000000005 126.71999999999998 354.45700000000005 127.13099999999999 354.38300000000004 127.55899999999998 C 354.34200000000004 127.78999999999998 354.295 128.03599999999997 354.25200000000007 128.271 C 354.1790000000001 128.67499999999998 354.10600000000005 129.077 354.0250000000001 129.49499999999998 C 353.9020000000001 130.12599999999998 353.7700000000001 130.77199999999996 353.6290000000001 131.43499999999997 C 352.3430000000001 137.45099999999996 350.25900000000007 144.81499999999997 347.06200000000007 153.82899999999998 L 324.5970000000001 153.82899999999998 L 317.7060000000001 103.05399999999997 C 335.064 103.594 348.121 104.198 348.355 104.212 z M 348.537 165.681 L 233.015 165.681 L 234.14 157.76000000000002 L 346.855 157.76000000000002 L 348.537 165.681 z M 279.761 102.258 C 287.04200000000003 102.319 294.51800000000003 102.451 301.735 102.619 L 305.939 153.82999999999998 L 278.178 153.82999999999998 L 279.761 102.258 z M 280.184 58.071 C 279.81300000000005 57.897999999999996 271.01500000000004 53.846999999999994 271.011 38.919 C 272.27200000000005 18.695999999999998 288.333 16.988999999999997 290.63500000000005 16.840999999999998 C 292.69700000000006 17.557999999999996 307.26200000000006 23.130999999999997 306.86500000000007 34.458999999999996 C 306.3960000000001 47.273999999999994 298.5730000000001 58.952 298.49700000000007 59.065 L 298.1940000000001 59.491 L 301.4120000000001 98.693 C 294.3340000000001 98.53 287.0150000000001 98.402 279.8810000000001 98.342 L 281.07400000000007 59.466 L 281.08700000000005 58.471000000000004 L 280.184 58.071 z M 222.57 125.201 L 87.56899999999999 126.076 C 88.15999999999998 120.80399999999999 88.755 115.64099999999999 89.353 110.603 L 220.75400000000002 120.96199999999999 C 221.323 122.599 221.981 124.051 222.57 125.201 z M 520.529 127.196 C 520.517 129.637 520.427 204.798 520.792 250.071 C 517.241 207.69299999999998 511.50600000000003 131.03199999999998 511.23400000000004 127.257 L 520.529 127.196 z M 525.265 301.676 C 524.362 235.103 524.33 174.753 524.389 144.898 L 543.85 146.432 C 542.596 160.356 535.0740000000001 244.86399999999998 528.588 337.676 C 527.445 325.642 526.336 313.597 525.265 301.676 z" stroke-linecap="round" />
</g>
</g>
</g>
</svg>